<mxfile host="app.diagrams.net" modified="2023-10-09T15:37:56.545Z" agent="Mozilla/5.0 (Windows NT 10.0; Win64; x64) AppleWebKit/537.36 (KHTML, like Gecko) Chrome/117.0.0.0 Safari/537.36" etag="mnMCEjZyQx8QGEJ841Bu" version="22.0.4" type="device">
  <diagram name="Page-1" id="qSh9Yc2X9zefdJ-g9-ok">
    <mxGraphModel dx="4884" dy="3475" grid="1" gridSize="10" guides="1" tooltips="1" connect="1" arrows="1" fold="1" page="1" pageScale="1" pageWidth="1169" pageHeight="827" math="0" shadow="0">
      <root>
        <mxCell id="0" />
        <mxCell id="1" parent="0" />
        <mxCell id="9Titu-ikn3R7RAfJcsM7-1" value="LiDAR (Top)" style="rounded=0;whiteSpace=wrap;html=1;fontFamily=Prompt;fontSource=https%3A%2F%2Ffonts.googleapis.com%2Fcss%3Ffamily%3DPrompt;fillColor=#B0E3E6;strokeColor=#0e8088;" parent="1" vertex="1">
          <mxGeometry x="140" y="118" width="160" height="30" as="geometry" />
        </mxCell>
        <mxCell id="9Titu-ikn3R7RAfJcsM7-2" value="LiDAR (Front Lower)" style="rounded=0;whiteSpace=wrap;html=1;fontFamily=Prompt;fontSource=https%3A%2F%2Ffonts.googleapis.com%2Fcss%3Ffamily%3DPrompt;fillColor=#B0E3E6;strokeColor=#0e8088;" parent="1" vertex="1">
          <mxGeometry x="140" y="158" width="160" height="30" as="geometry" />
        </mxCell>
        <mxCell id="9Titu-ikn3R7RAfJcsM7-3" value="LiDAR (Right Lower)" style="rounded=0;whiteSpace=wrap;html=1;fontFamily=Prompt;fontSource=https%3A%2F%2Ffonts.googleapis.com%2Fcss%3Ffamily%3DPrompt;fillColor=#b0e3e6;strokeColor=#0e8088;" parent="1" vertex="1">
          <mxGeometry x="140" y="198" width="160" height="30" as="geometry" />
        </mxCell>
        <mxCell id="9Titu-ikn3R7RAfJcsM7-4" value="LiDAR (Left Lower)" style="rounded=0;whiteSpace=wrap;html=1;fontFamily=Prompt;fontSource=https%3A%2F%2Ffonts.googleapis.com%2Fcss%3Ffamily%3DPrompt;fillColor=#B0E3E6;" parent="1" vertex="1">
          <mxGeometry x="140" y="238" width="160" height="30" as="geometry" />
        </mxCell>
        <mxCell id="9Titu-ikn3R7RAfJcsM7-5" value="LiDAR (Right Upper)" style="rounded=0;whiteSpace=wrap;html=1;fontFamily=Prompt;fontSource=https%3A%2F%2Ffonts.googleapis.com%2Fcss%3Ffamily%3DPrompt;fillColor=#B0E3E6;" parent="1" vertex="1">
          <mxGeometry x="140" y="278" width="160" height="30" as="geometry" />
        </mxCell>
        <mxCell id="9Titu-ikn3R7RAfJcsM7-7" value="Camera (Front Middle)" style="rounded=0;whiteSpace=wrap;html=1;fontFamily=Prompt;fontSource=https%3A%2F%2Ffonts.googleapis.com%2Fcss%3Ffamily%3DPrompt;fillColor=#B0E3E6;" parent="1" vertex="1">
          <mxGeometry x="140" y="380" width="160" height="30" as="geometry" />
        </mxCell>
        <mxCell id="9Titu-ikn3R7RAfJcsM7-8" value="Camera (Front Left)" style="rounded=0;whiteSpace=wrap;html=1;fontFamily=Prompt;fontSource=https%3A%2F%2Ffonts.googleapis.com%2Fcss%3Ffamily%3DPrompt;fillColor=#B0E3E6;" parent="1" vertex="1">
          <mxGeometry x="140" y="420" width="160" height="30" as="geometry" />
        </mxCell>
        <mxCell id="9Titu-ikn3R7RAfJcsM7-9" value="Camera (Front Right)" style="rounded=0;whiteSpace=wrap;html=1;fontFamily=Prompt;fontSource=https%3A%2F%2Ffonts.googleapis.com%2Fcss%3Ffamily%3DPrompt;fillColor=#B0E3E6;" parent="1" vertex="1">
          <mxGeometry x="140" y="460" width="160" height="30" as="geometry" />
        </mxCell>
        <mxCell id="9Titu-ikn3R7RAfJcsM7-10" value="Camera (Middle Left)" style="rounded=0;whiteSpace=wrap;html=1;fontFamily=Prompt;fontSource=https%3A%2F%2Ffonts.googleapis.com%2Fcss%3Ffamily%3DPrompt;fillColor=#B0E3E6;" parent="1" vertex="1">
          <mxGeometry x="140" y="500" width="160" height="30" as="geometry" />
        </mxCell>
        <mxCell id="9Titu-ikn3R7RAfJcsM7-11" value="Camera (Middle Right)" style="rounded=0;whiteSpace=wrap;html=1;fontFamily=Prompt;fontSource=https%3A%2F%2Ffonts.googleapis.com%2Fcss%3Ffamily%3DPrompt;fillColor=#B0E3E6;" parent="1" vertex="1">
          <mxGeometry x="140" y="540" width="160" height="30" as="geometry" />
        </mxCell>
        <mxCell id="9Titu-ikn3R7RAfJcsM7-12" value="Camera (Rear Left)" style="rounded=0;whiteSpace=wrap;html=1;fontFamily=Prompt;fontSource=https%3A%2F%2Ffonts.googleapis.com%2Fcss%3Ffamily%3DPrompt;fillColor=#B0E3E6;" parent="1" vertex="1">
          <mxGeometry x="140" y="580" width="160" height="30" as="geometry" />
        </mxCell>
        <mxCell id="9Titu-ikn3R7RAfJcsM7-13" value="Camera (Rear Right)" style="rounded=0;whiteSpace=wrap;html=1;fontFamily=Prompt;fontSource=https%3A%2F%2Ffonts.googleapis.com%2Fcss%3Ffamily%3DPrompt;fillColor=#B0E3E6;" parent="1" vertex="1">
          <mxGeometry x="140" y="620" width="160" height="30" as="geometry" />
        </mxCell>
        <mxCell id="9Titu-ikn3R7RAfJcsM7-14" value="Camera (Rear Middle)" style="rounded=0;whiteSpace=wrap;html=1;fontFamily=Prompt;fontSource=https%3A%2F%2Ffonts.googleapis.com%2Fcss%3Ffamily%3DPrompt;fillColor=#B0E3E6;" parent="1" vertex="1">
          <mxGeometry x="140" y="660" width="160" height="30" as="geometry" />
        </mxCell>
        <mxCell id="FJypRKDRmy7NfV-EIju6-39" style="edgeStyle=orthogonalEdgeStyle;rounded=0;orthogonalLoop=1;jettySize=auto;html=1;entryX=0;entryY=0.25;entryDx=0;entryDy=0;" parent="1" source="9Titu-ikn3R7RAfJcsM7-15" target="GXkyG_X95fv6h3vANshV-12" edge="1">
          <mxGeometry relative="1" as="geometry" />
        </mxCell>
        <mxCell id="9Titu-ikn3R7RAfJcsM7-15" value="GNSS/INS System" style="rounded=0;whiteSpace=wrap;html=1;fontFamily=Prompt;fontSource=https%3A%2F%2Ffonts.googleapis.com%2Fcss%3Ffamily%3DPrompt;fillColor=#B0E3E6;" parent="1" vertex="1">
          <mxGeometry x="140" y="725" width="160" height="30" as="geometry" />
        </mxCell>
        <mxCell id="FJypRKDRmy7NfV-EIju6-6" style="edgeStyle=orthogonalEdgeStyle;rounded=0;orthogonalLoop=1;jettySize=auto;html=1;startArrow=classic;startFill=1;" parent="1" source="9Titu-ikn3R7RAfJcsM7-16" edge="1">
          <mxGeometry relative="1" as="geometry">
            <mxPoint x="2190" y="475" as="targetPoint" />
          </mxGeometry>
        </mxCell>
        <mxCell id="9Titu-ikn3R7RAfJcsM7-16" value="" style="rounded=0;whiteSpace=wrap;html=1;fontFamily=Prompt;fontSource=https%3A%2F%2Ffonts.googleapis.com%2Fcss%3Ffamily%3DPrompt;fillColor=#A1CCD1;" parent="1" vertex="1">
          <mxGeometry x="400" width="1740" height="950" as="geometry" />
        </mxCell>
        <mxCell id="GXkyG_X95fv6h3vANshV-40" value="" style="group;fontFamily=Prompt;fontSource=https%3A%2F%2Ffonts.googleapis.com%2Fcss%3Ffamily%3DPrompt;fillColor=#93BFCF;gradientColor=default;container=0;" parent="1" vertex="1" connectable="0">
          <mxGeometry x="460" y="80" width="360" height="710" as="geometry" />
        </mxCell>
        <mxCell id="9Titu-ikn3R7RAfJcsM7-17" value="Fleet Management System" style="rounded=0;whiteSpace=wrap;html=1;fontFamily=Prompt;fontSource=https%3A%2F%2Ffonts.googleapis.com%2Fcss%3Ffamily%3DPrompt;fillColor=#B3AFD3;strokeColor=#23445d;" parent="1" vertex="1">
          <mxGeometry x="470" y="-80" width="760" height="40" as="geometry" />
        </mxCell>
        <mxCell id="FJypRKDRmy7NfV-EIju6-7" style="edgeStyle=orthogonalEdgeStyle;rounded=0;orthogonalLoop=1;jettySize=auto;html=1;entryX=0.736;entryY=0.021;entryDx=0;entryDy=0;exitX=0.502;exitY=1.002;exitDx=0;exitDy=0;exitPerimeter=0;entryPerimeter=0;endArrow=block;endFill=1;startArrow=block;startFill=1;" parent="1" source="9Titu-ikn3R7RAfJcsM7-18" target="9Titu-ikn3R7RAfJcsM7-16" edge="1">
          <mxGeometry relative="1" as="geometry" />
        </mxCell>
        <mxCell id="9Titu-ikn3R7RAfJcsM7-18" value="HMI" style="rounded=0;whiteSpace=wrap;html=1;fontFamily=Prompt;fontSource=https%3A%2F%2Ffonts.googleapis.com%2Fcss%3Ffamily%3DPrompt;fillColor=#b3afd3;" parent="1" vertex="1">
          <mxGeometry x="1300" y="-80" width="757.5" height="40" as="geometry" />
        </mxCell>
        <mxCell id="9Titu-ikn3R7RAfJcsM7-19" value="AD API" style="rounded=0;whiteSpace=wrap;html=1;fontFamily=Prompt;fontSource=https%3A%2F%2Ffonts.googleapis.com%2Fcss%3Ffamily%3DPrompt;fillColor=#F4F2DE;" parent="1" vertex="1">
          <mxGeometry x="460" y="20" width="1620" height="40" as="geometry" />
        </mxCell>
        <mxCell id="FJypRKDRmy7NfV-EIju6-33" style="edgeStyle=orthogonalEdgeStyle;rounded=0;orthogonalLoop=1;jettySize=auto;html=1;entryX=0;entryY=0.5;entryDx=0;entryDy=0;startArrow=classic;startFill=1;" parent="1" source="GXkyG_X95fv6h3vANshV-38" target="GXkyG_X95fv6h3vANshV-39" edge="1">
          <mxGeometry relative="1" as="geometry" />
        </mxCell>
        <mxCell id="GXkyG_X95fv6h3vANshV-38" value="Control" style="rounded=0;whiteSpace=wrap;html=1;verticalAlign=top;fontFamily=Prompt;fontSource=https%3A%2F%2Ffonts.googleapis.com%2Fcss%3Ffamily%3DPrompt;fillColor=#F4F2DE;" parent="1" vertex="1">
          <mxGeometry x="1650" y="80" width="190" height="710" as="geometry" />
        </mxCell>
        <mxCell id="GXkyG_X95fv6h3vANshV-39" value="Vehicle Interface" style="rounded=0;whiteSpace=wrap;html=1;verticalAlign=top;fontFamily=Prompt;fontSource=https%3A%2F%2Ffonts.googleapis.com%2Fcss%3Ffamily%3DPrompt;fillColor=#F4F2DE;" parent="1" vertex="1">
          <mxGeometry x="1890" y="80" width="190" height="710" as="geometry" />
        </mxCell>
        <mxCell id="GXkyG_X95fv6h3vANshV-44" value="" style="group;fontFamily=Prompt;fontSource=https%3A%2F%2Ffonts.googleapis.com%2Fcss%3Ffamily%3DPrompt;fillColor=#b45248;gradientColor=none;container=0;" parent="1" vertex="1" connectable="0">
          <mxGeometry x="870" y="360" width="330" height="205" as="geometry" />
        </mxCell>
        <mxCell id="GXkyG_X95fv6h3vANshV-47" value="" style="group;fontFamily=Prompt;fontSource=https%3A%2F%2Ffonts.googleapis.com%2Fcss%3Ffamily%3DPrompt;fillColor=#BDCDD6;container=0;" parent="1" vertex="1" connectable="0">
          <mxGeometry x="460" y="820" width="1620" height="120" as="geometry" />
        </mxCell>
        <mxCell id="FJypRKDRmy7NfV-EIju6-4" style="edgeStyle=orthogonalEdgeStyle;rounded=0;orthogonalLoop=1;jettySize=auto;html=1;entryX=0.5;entryY=0;entryDx=0;entryDy=0;" parent="1" source="GXkyG_X95fv6h3vANshV-48" target="GXkyG_X95fv6h3vANshV-49" edge="1">
          <mxGeometry relative="1" as="geometry" />
        </mxCell>
        <mxCell id="GXkyG_X95fv6h3vANshV-48" value="&lt;font color=&quot;#ffffff&quot;&gt;Trajectory Follower&lt;/font&gt;" style="rounded=0;whiteSpace=wrap;html=1;fontFamily=Prompt;fontSource=https%3A%2F%2Ffonts.googleapis.com%2Fcss%3Ffamily%3DPrompt;fillColor=#4a55a2;" parent="1" vertex="1">
          <mxGeometry x="1672.5" y="270" width="145" height="80" as="geometry" />
        </mxCell>
        <mxCell id="GXkyG_X95fv6h3vANshV-49" value="&lt;font color=&quot;#fafeff&quot;&gt;Control Command&lt;br&gt;Gate&lt;/font&gt;" style="rounded=0;whiteSpace=wrap;html=1;fontFamily=Prompt;fontSource=https%3A%2F%2Ffonts.googleapis.com%2Fcss%3Ffamily%3DPrompt;fillColor=#4A55A2;" parent="1" vertex="1">
          <mxGeometry x="1672.5" y="470" width="145" height="80" as="geometry" />
        </mxCell>
        <mxCell id="FJypRKDRmy7NfV-EIju6-5" style="edgeStyle=orthogonalEdgeStyle;rounded=0;orthogonalLoop=1;jettySize=auto;html=1;entryX=0.5;entryY=0;entryDx=0;entryDy=0;" parent="1" source="GXkyG_X95fv6h3vANshV-50" target="GXkyG_X95fv6h3vANshV-51" edge="1">
          <mxGeometry relative="1" as="geometry" />
        </mxCell>
        <mxCell id="GXkyG_X95fv6h3vANshV-50" value="Command Converter" style="rounded=0;whiteSpace=wrap;html=1;fontFamily=Prompt;fontSource=https%3A%2F%2Ffonts.googleapis.com%2Fcss%3Ffamily%3DPrompt;fillColor=#6F808C;" parent="1" vertex="1">
          <mxGeometry x="1912.5" y="270" width="145" height="80" as="geometry" />
        </mxCell>
        <mxCell id="GXkyG_X95fv6h3vANshV-51" value="Leo Vehicle Interface" style="rounded=0;whiteSpace=wrap;html=1;fontFamily=Prompt;fontSource=https%3A%2F%2Ffonts.googleapis.com%2Fcss%3Ffamily%3DPrompt;fillColor=#6f808c;" parent="1" vertex="1">
          <mxGeometry x="1912.5" y="470" width="145" height="80" as="geometry" />
        </mxCell>
        <mxCell id="GXkyG_X95fv6h3vANshV-54" value="AV Control ECU" style="rounded=0;whiteSpace=wrap;html=1;fontFamily=Prompt;fontSource=https%3A%2F%2Ffonts.googleapis.com%2Fcss%3Ffamily%3DPrompt;fillColor=#FFFFCC;" parent="1" vertex="1">
          <mxGeometry x="2193" y="337.5" width="145" height="275" as="geometry" />
        </mxCell>
        <mxCell id="GXkyG_X95fv6h3vANshV-62" style="edgeStyle=orthogonalEdgeStyle;rounded=0;orthogonalLoop=1;jettySize=auto;html=1;entryX=0;entryY=0.5;entryDx=0;entryDy=0;" parent="1" source="9Titu-ikn3R7RAfJcsM7-7" target="GXkyG_X95fv6h3vANshV-2" edge="1">
          <mxGeometry relative="1" as="geometry" />
        </mxCell>
        <mxCell id="GXkyG_X95fv6h3vANshV-63" style="edgeStyle=orthogonalEdgeStyle;rounded=0;orthogonalLoop=1;jettySize=auto;html=1;entryX=0;entryY=0.5;entryDx=0;entryDy=0;" parent="1" source="9Titu-ikn3R7RAfJcsM7-8" target="GXkyG_X95fv6h3vANshV-3" edge="1">
          <mxGeometry relative="1" as="geometry" />
        </mxCell>
        <mxCell id="GXkyG_X95fv6h3vANshV-64" style="edgeStyle=orthogonalEdgeStyle;rounded=0;orthogonalLoop=1;jettySize=auto;html=1;entryX=0;entryY=0.5;entryDx=0;entryDy=0;" parent="1" source="9Titu-ikn3R7RAfJcsM7-9" target="GXkyG_X95fv6h3vANshV-4" edge="1">
          <mxGeometry relative="1" as="geometry" />
        </mxCell>
        <mxCell id="GXkyG_X95fv6h3vANshV-65" style="edgeStyle=orthogonalEdgeStyle;rounded=0;orthogonalLoop=1;jettySize=auto;html=1;entryX=0;entryY=0.5;entryDx=0;entryDy=0;" parent="1" source="9Titu-ikn3R7RAfJcsM7-10" target="GXkyG_X95fv6h3vANshV-5" edge="1">
          <mxGeometry relative="1" as="geometry" />
        </mxCell>
        <mxCell id="GXkyG_X95fv6h3vANshV-66" style="edgeStyle=orthogonalEdgeStyle;rounded=0;orthogonalLoop=1;jettySize=auto;html=1;entryX=0;entryY=0.5;entryDx=0;entryDy=0;" parent="1" source="9Titu-ikn3R7RAfJcsM7-11" target="GXkyG_X95fv6h3vANshV-6" edge="1">
          <mxGeometry relative="1" as="geometry" />
        </mxCell>
        <mxCell id="GXkyG_X95fv6h3vANshV-67" style="edgeStyle=orthogonalEdgeStyle;rounded=0;orthogonalLoop=1;jettySize=auto;html=1;entryX=0;entryY=0.5;entryDx=0;entryDy=0;" parent="1" source="9Titu-ikn3R7RAfJcsM7-12" target="GXkyG_X95fv6h3vANshV-7" edge="1">
          <mxGeometry relative="1" as="geometry" />
        </mxCell>
        <mxCell id="GXkyG_X95fv6h3vANshV-68" style="edgeStyle=orthogonalEdgeStyle;rounded=0;orthogonalLoop=1;jettySize=auto;html=1;" parent="1" source="9Titu-ikn3R7RAfJcsM7-13" target="GXkyG_X95fv6h3vANshV-8" edge="1">
          <mxGeometry relative="1" as="geometry" />
        </mxCell>
        <mxCell id="GXkyG_X95fv6h3vANshV-69" style="edgeStyle=orthogonalEdgeStyle;rounded=0;orthogonalLoop=1;jettySize=auto;html=1;entryX=0;entryY=0.5;entryDx=0;entryDy=0;" parent="1" source="9Titu-ikn3R7RAfJcsM7-14" target="GXkyG_X95fv6h3vANshV-9" edge="1">
          <mxGeometry relative="1" as="geometry" />
        </mxCell>
        <mxCell id="GXkyG_X95fv6h3vANshV-70" style="edgeStyle=orthogonalEdgeStyle;rounded=0;orthogonalLoop=1;jettySize=auto;html=1;entryX=0;entryY=0.5;entryDx=0;entryDy=0;" parent="1" source="9Titu-ikn3R7RAfJcsM7-15" target="GXkyG_X95fv6h3vANshV-10" edge="1">
          <mxGeometry relative="1" as="geometry" />
        </mxCell>
        <mxCell id="GXkyG_X95fv6h3vANshV-74" style="edgeStyle=orthogonalEdgeStyle;rounded=0;orthogonalLoop=1;jettySize=auto;html=1;entryX=0;entryY=0.5;entryDx=0;entryDy=0;" parent="1" source="GXkyG_X95fv6h3vANshV-72" target="GXkyG_X95fv6h3vANshV-73" edge="1">
          <mxGeometry relative="1" as="geometry" />
        </mxCell>
        <mxCell id="GXkyG_X95fv6h3vANshV-72" value="LiDAR (Left Upper)" style="rounded=0;whiteSpace=wrap;html=1;fontFamily=Prompt;fontSource=https%3A%2F%2Ffonts.googleapis.com%2Fcss%3Ffamily%3DPrompt;fillColor=#B0E3E6;" parent="1" vertex="1">
          <mxGeometry x="140" y="318" width="160" height="30" as="geometry" />
        </mxCell>
        <mxCell id="GXkyG_X95fv6h3vANshV-75" style="edgeStyle=orthogonalEdgeStyle;rounded=0;orthogonalLoop=1;jettySize=auto;html=1;entryX=0;entryY=0.5;entryDx=0;entryDy=0;" parent="1" source="9Titu-ikn3R7RAfJcsM7-5" target="9Titu-ikn3R7RAfJcsM7-25" edge="1">
          <mxGeometry relative="1" as="geometry" />
        </mxCell>
        <mxCell id="GXkyG_X95fv6h3vANshV-76" style="edgeStyle=orthogonalEdgeStyle;rounded=0;orthogonalLoop=1;jettySize=auto;html=1;entryX=0;entryY=0.5;entryDx=0;entryDy=0;" parent="1" source="9Titu-ikn3R7RAfJcsM7-4" target="9Titu-ikn3R7RAfJcsM7-24" edge="1">
          <mxGeometry relative="1" as="geometry" />
        </mxCell>
        <mxCell id="GXkyG_X95fv6h3vANshV-77" style="edgeStyle=orthogonalEdgeStyle;rounded=0;orthogonalLoop=1;jettySize=auto;html=1;entryX=0;entryY=0.5;entryDx=0;entryDy=0;" parent="1" source="9Titu-ikn3R7RAfJcsM7-3" target="9Titu-ikn3R7RAfJcsM7-23" edge="1">
          <mxGeometry relative="1" as="geometry" />
        </mxCell>
        <mxCell id="GXkyG_X95fv6h3vANshV-78" style="edgeStyle=orthogonalEdgeStyle;rounded=0;orthogonalLoop=1;jettySize=auto;html=1;entryX=0;entryY=0.5;entryDx=0;entryDy=0;" parent="1" source="9Titu-ikn3R7RAfJcsM7-2" target="9Titu-ikn3R7RAfJcsM7-22" edge="1">
          <mxGeometry relative="1" as="geometry" />
        </mxCell>
        <mxCell id="GXkyG_X95fv6h3vANshV-79" style="edgeStyle=orthogonalEdgeStyle;rounded=0;orthogonalLoop=1;jettySize=auto;html=1;entryX=0;entryY=0.5;entryDx=0;entryDy=0;" parent="1" source="9Titu-ikn3R7RAfJcsM7-1" target="9Titu-ikn3R7RAfJcsM7-21" edge="1">
          <mxGeometry relative="1" as="geometry" />
        </mxCell>
        <mxCell id="GXkyG_X95fv6h3vANshV-87" style="edgeStyle=orthogonalEdgeStyle;rounded=0;orthogonalLoop=1;jettySize=auto;html=1;exitX=1;exitY=0.25;exitDx=0;exitDy=0;entryX=0;entryY=0.479;entryDx=0;entryDy=0;entryPerimeter=0;" parent="1" source="9Titu-ikn3R7RAfJcsM7-26" target="GXkyG_X95fv6h3vANshV-12" edge="1">
          <mxGeometry relative="1" as="geometry" />
        </mxCell>
        <mxCell id="FJypRKDRmy7NfV-EIju6-2" value="" style="endArrow=classic;html=1;rounded=0;jumpStyle=arc;entryX=0;entryY=0.963;entryDx=0;entryDy=0;entryPerimeter=0;" parent="1" target="FJypRKDRmy7NfV-EIju6-3" edge="1">
          <mxGeometry width="50" height="50" relative="1" as="geometry">
            <mxPoint x="360" y="740" as="sourcePoint" />
            <mxPoint x="360" y="350" as="targetPoint" />
            <Array as="points">
              <mxPoint x="360" y="350" />
              <mxPoint x="420" y="350" />
            </Array>
          </mxGeometry>
        </mxCell>
        <mxCell id="FJypRKDRmy7NfV-EIju6-9" style="edgeStyle=orthogonalEdgeStyle;rounded=0;orthogonalLoop=1;jettySize=auto;html=1;exitX=0.5;exitY=1;exitDx=0;exitDy=0;startArrow=block;startFill=1;endArrow=block;endFill=1;" parent="1" source="9Titu-ikn3R7RAfJcsM7-17" edge="1">
          <mxGeometry relative="1" as="geometry">
            <mxPoint x="850" y="20" as="targetPoint" />
            <Array as="points">
              <mxPoint x="850" y="20" />
            </Array>
          </mxGeometry>
        </mxCell>
        <mxCell id="FJypRKDRmy7NfV-EIju6-12" style="edgeStyle=orthogonalEdgeStyle;rounded=0;orthogonalLoop=1;jettySize=auto;html=1;entryX=0.001;entryY=0.141;entryDx=0;entryDy=0;entryPerimeter=0;" parent="1" source="GXkyG_X95fv6h3vANshV-12" target="GXkyG_X95fv6h3vANshV-31" edge="1">
          <mxGeometry relative="1" as="geometry" />
        </mxCell>
        <mxCell id="FJypRKDRmy7NfV-EIju6-13" style="edgeStyle=orthogonalEdgeStyle;rounded=0;orthogonalLoop=1;jettySize=auto;html=1;entryX=0;entryY=0.25;entryDx=0;entryDy=0;exitX=1;exitY=0.5;exitDx=0;exitDy=0;" parent="1" source="GXkyG_X95fv6h3vANshV-12" target="GXkyG_X95fv6h3vANshV-16" edge="1">
          <mxGeometry relative="1" as="geometry" />
        </mxCell>
        <mxCell id="FJypRKDRmy7NfV-EIju6-14" style="edgeStyle=orthogonalEdgeStyle;rounded=0;orthogonalLoop=1;jettySize=auto;html=1;entryX=0;entryY=0.88;entryDx=0;entryDy=0;entryPerimeter=0;" parent="1" source="GXkyG_X95fv6h3vANshV-20" target="GXkyG_X95fv6h3vANshV-31" edge="1">
          <mxGeometry relative="1" as="geometry" />
        </mxCell>
        <mxCell id="FJypRKDRmy7NfV-EIju6-22" style="edgeStyle=orthogonalEdgeStyle;rounded=0;orthogonalLoop=1;jettySize=auto;html=1;entryX=0;entryY=0.75;entryDx=0;entryDy=0;" parent="1" source="GXkyG_X95fv6h3vANshV-2" target="GXkyG_X95fv6h3vANshV-16" edge="1">
          <mxGeometry relative="1" as="geometry">
            <Array as="points">
              <mxPoint x="810" y="395" />
              <mxPoint x="810" y="514" />
            </Array>
          </mxGeometry>
        </mxCell>
        <mxCell id="FJypRKDRmy7NfV-EIju6-23" style="edgeStyle=orthogonalEdgeStyle;rounded=0;orthogonalLoop=1;jettySize=auto;html=1;entryX=0;entryY=0.75;entryDx=0;entryDy=0;" parent="1" source="GXkyG_X95fv6h3vANshV-3" target="GXkyG_X95fv6h3vANshV-16" edge="1">
          <mxGeometry relative="1" as="geometry">
            <mxPoint x="869.9999999999998" y="519.9999999999998" as="targetPoint" />
            <Array as="points">
              <mxPoint x="810" y="435" />
              <mxPoint x="810" y="514" />
            </Array>
          </mxGeometry>
        </mxCell>
        <mxCell id="FJypRKDRmy7NfV-EIju6-24" style="edgeStyle=orthogonalEdgeStyle;rounded=0;orthogonalLoop=1;jettySize=auto;html=1;entryX=0;entryY=0.75;entryDx=0;entryDy=0;" parent="1" source="GXkyG_X95fv6h3vANshV-4" target="GXkyG_X95fv6h3vANshV-16" edge="1">
          <mxGeometry relative="1" as="geometry">
            <Array as="points">
              <mxPoint x="810" y="475" />
              <mxPoint x="810" y="514" />
            </Array>
          </mxGeometry>
        </mxCell>
        <mxCell id="GXkyG_X95fv6h3vANshV-86" style="edgeStyle=orthogonalEdgeStyle;rounded=0;orthogonalLoop=1;jettySize=auto;html=1;exitX=1;exitY=0.5;exitDx=0;exitDy=0;jumpStyle=arc;" parent="1" source="GXkyG_X95fv6h3vANshV-10" edge="1">
          <mxGeometry relative="1" as="geometry">
            <Array as="points">
              <mxPoint x="830" y="740" />
              <mxPoint x="830" y="210" />
            </Array>
            <mxPoint x="870" y="210" as="targetPoint" />
          </mxGeometry>
        </mxCell>
        <mxCell id="FJypRKDRmy7NfV-EIju6-30" style="edgeStyle=orthogonalEdgeStyle;rounded=0;orthogonalLoop=1;jettySize=auto;html=1;entryX=0.27;entryY=0.253;entryDx=0;entryDy=0;entryPerimeter=0;jumpStyle=arc;" parent="1" target="9Titu-ikn3R7RAfJcsM7-16" edge="1">
          <mxGeometry relative="1" as="geometry">
            <mxPoint x="1200" y="705" as="sourcePoint" />
            <Array as="points">
              <mxPoint x="1220" y="705" />
              <mxPoint x="1220" y="600" />
              <mxPoint x="840" y="600" />
              <mxPoint x="840" y="240" />
            </Array>
          </mxGeometry>
        </mxCell>
        <mxCell id="FJypRKDRmy7NfV-EIju6-25" style="edgeStyle=orthogonalEdgeStyle;rounded=0;orthogonalLoop=1;jettySize=auto;html=1;entryX=0;entryY=0.75;entryDx=0;entryDy=0;" parent="1" source="GXkyG_X95fv6h3vANshV-5" target="GXkyG_X95fv6h3vANshV-16" edge="1">
          <mxGeometry relative="1" as="geometry">
            <Array as="points">
              <mxPoint x="835" y="514" />
            </Array>
          </mxGeometry>
        </mxCell>
        <mxCell id="FJypRKDRmy7NfV-EIju6-26" style="edgeStyle=orthogonalEdgeStyle;rounded=0;orthogonalLoop=1;jettySize=auto;html=1;entryX=0;entryY=0.75;entryDx=0;entryDy=0;" parent="1" source="GXkyG_X95fv6h3vANshV-6" target="GXkyG_X95fv6h3vANshV-16" edge="1">
          <mxGeometry relative="1" as="geometry">
            <Array as="points">
              <mxPoint x="810" y="555" />
              <mxPoint x="810" y="514" />
            </Array>
          </mxGeometry>
        </mxCell>
        <mxCell id="FJypRKDRmy7NfV-EIju6-27" style="edgeStyle=orthogonalEdgeStyle;rounded=0;orthogonalLoop=1;jettySize=auto;html=1;entryX=0;entryY=0.75;entryDx=0;entryDy=0;" parent="1" source="GXkyG_X95fv6h3vANshV-7" target="GXkyG_X95fv6h3vANshV-16" edge="1">
          <mxGeometry relative="1" as="geometry">
            <Array as="points">
              <mxPoint x="810" y="595" />
              <mxPoint x="810" y="514" />
            </Array>
          </mxGeometry>
        </mxCell>
        <mxCell id="FJypRKDRmy7NfV-EIju6-28" style="edgeStyle=orthogonalEdgeStyle;rounded=0;orthogonalLoop=1;jettySize=auto;html=1;entryX=0;entryY=0.75;entryDx=0;entryDy=0;" parent="1" source="GXkyG_X95fv6h3vANshV-8" target="GXkyG_X95fv6h3vANshV-16" edge="1">
          <mxGeometry relative="1" as="geometry">
            <Array as="points">
              <mxPoint x="810" y="636" />
              <mxPoint x="810" y="514" />
            </Array>
          </mxGeometry>
        </mxCell>
        <mxCell id="FJypRKDRmy7NfV-EIju6-29" style="edgeStyle=orthogonalEdgeStyle;rounded=0;orthogonalLoop=1;jettySize=auto;html=1;entryX=0;entryY=0.75;entryDx=0;entryDy=0;" parent="1" source="GXkyG_X95fv6h3vANshV-9" target="GXkyG_X95fv6h3vANshV-16" edge="1">
          <mxGeometry relative="1" as="geometry">
            <Array as="points">
              <mxPoint x="810" y="676" />
              <mxPoint x="810" y="514" />
            </Array>
          </mxGeometry>
        </mxCell>
        <mxCell id="FJypRKDRmy7NfV-EIju6-31" value="" style="endArrow=classic;html=1;rounded=0;" parent="1" edge="1">
          <mxGeometry width="50" height="50" relative="1" as="geometry">
            <mxPoint x="840" y="470" as="sourcePoint" />
            <mxPoint x="870" y="470" as="targetPoint" />
          </mxGeometry>
        </mxCell>
        <mxCell id="FJypRKDRmy7NfV-EIju6-32" style="edgeStyle=orthogonalEdgeStyle;rounded=0;orthogonalLoop=1;jettySize=auto;html=1;entryX=0;entryY=0.539;entryDx=0;entryDy=0;entryPerimeter=0;" parent="1" source="GXkyG_X95fv6h3vANshV-16" target="GXkyG_X95fv6h3vANshV-31" edge="1">
          <mxGeometry relative="1" as="geometry" />
        </mxCell>
        <mxCell id="FJypRKDRmy7NfV-EIju6-34" style="edgeStyle=orthogonalEdgeStyle;rounded=0;orthogonalLoop=1;jettySize=auto;html=1;entryX=0;entryY=0.5;entryDx=0;entryDy=0;" parent="1" source="GXkyG_X95fv6h3vANshV-31" target="GXkyG_X95fv6h3vANshV-38" edge="1">
          <mxGeometry relative="1" as="geometry" />
        </mxCell>
        <mxCell id="FJypRKDRmy7NfV-EIju6-37" style="edgeStyle=orthogonalEdgeStyle;rounded=0;orthogonalLoop=1;jettySize=auto;html=1;dashed=1;dashPattern=1 1;" parent="1" edge="1">
          <mxGeometry relative="1" as="geometry">
            <mxPoint x="1220" y="220" as="sourcePoint" />
            <mxPoint x="1650" y="220" as="targetPoint" />
            <Array as="points">
              <mxPoint x="1540" y="220" />
              <mxPoint x="1540" y="220" />
            </Array>
          </mxGeometry>
        </mxCell>
        <mxCell id="FJypRKDRmy7NfV-EIju6-40" style="edgeStyle=orthogonalEdgeStyle;rounded=0;orthogonalLoop=1;jettySize=auto;html=1;entryX=0;entryY=0.2;entryDx=0;entryDy=0;entryPerimeter=0;startArrow=none;startFill=0;dashed=1;dashPattern=1 4;" parent="1" source="9Titu-ikn3R7RAfJcsM7-15" target="GXkyG_X95fv6h3vANshV-12" edge="1">
          <mxGeometry relative="1" as="geometry">
            <Array as="points">
              <mxPoint x="330" y="740" />
              <mxPoint x="330" y="770" />
              <mxPoint x="830" y="770" />
              <mxPoint x="830" y="120" />
            </Array>
          </mxGeometry>
        </mxCell>
        <mxCell id="9Titu-ikn3R7RAfJcsM7-20" value="Sensing" style="rounded=0;whiteSpace=wrap;html=1;verticalAlign=top;fontFamily=Prompt;fontSource=https%3A%2F%2Ffonts.googleapis.com%2Fcss%3Ffamily%3DPrompt;fillColor=#F4F2DE;" parent="1" vertex="1">
          <mxGeometry x="460" y="80" width="360" height="710" as="geometry" />
        </mxCell>
        <mxCell id="9Titu-ikn3R7RAfJcsM7-26" value="Concat" style="rounded=0;whiteSpace=wrap;html=1;fontFamily=Prompt;fontSource=https%3A%2F%2Ffonts.googleapis.com%2Fcss%3Ffamily%3DPrompt;fillColor=#D9D3F8;" parent="1" vertex="1">
          <mxGeometry x="670" y="118" width="130" height="230" as="geometry" />
        </mxCell>
        <mxCell id="GXkyG_X95fv6h3vANshV-2" value="Rectifier" style="rounded=0;whiteSpace=wrap;html=1;fontFamily=Prompt;fontSource=https%3A%2F%2Ffonts.googleapis.com%2Fcss%3Ffamily%3DPrompt;fillColor=#647687;fontColor=#ffffff;strokeColor=#314354;" parent="1" vertex="1">
          <mxGeometry x="480" y="380" width="320" height="30" as="geometry" />
        </mxCell>
        <mxCell id="GXkyG_X95fv6h3vANshV-3" value="Rectifier" style="rounded=0;whiteSpace=wrap;html=1;fontFamily=Prompt;fontSource=https%3A%2F%2Ffonts.googleapis.com%2Fcss%3Ffamily%3DPrompt;fillColor=#647687;fontColor=#ffffff;strokeColor=#314354;" parent="1" vertex="1">
          <mxGeometry x="480" y="420" width="320" height="30" as="geometry" />
        </mxCell>
        <mxCell id="GXkyG_X95fv6h3vANshV-4" value="Rectifier" style="rounded=0;whiteSpace=wrap;html=1;fontFamily=Prompt;fontSource=https%3A%2F%2Ffonts.googleapis.com%2Fcss%3Ffamily%3DPrompt;fillColor=#647687;fontColor=#ffffff;strokeColor=#314354;" parent="1" vertex="1">
          <mxGeometry x="480" y="460" width="320" height="30" as="geometry" />
        </mxCell>
        <mxCell id="GXkyG_X95fv6h3vANshV-5" value="Rectifier" style="rounded=0;whiteSpace=wrap;html=1;fontFamily=Prompt;fontSource=https%3A%2F%2Ffonts.googleapis.com%2Fcss%3Ffamily%3DPrompt;fillColor=#647687;fontColor=#ffffff;strokeColor=#314354;" parent="1" vertex="1">
          <mxGeometry x="480" y="500" width="320" height="30" as="geometry" />
        </mxCell>
        <mxCell id="GXkyG_X95fv6h3vANshV-6" value="Rectifier" style="rounded=0;whiteSpace=wrap;html=1;fontFamily=Prompt;fontSource=https%3A%2F%2Ffonts.googleapis.com%2Fcss%3Ffamily%3DPrompt;fillColor=#647687;fontColor=#ffffff;strokeColor=#314354;" parent="1" vertex="1">
          <mxGeometry x="480" y="540" width="320" height="30" as="geometry" />
        </mxCell>
        <mxCell id="GXkyG_X95fv6h3vANshV-7" value="Rectifier" style="rounded=0;whiteSpace=wrap;html=1;fontFamily=Prompt;fontSource=https%3A%2F%2Ffonts.googleapis.com%2Fcss%3Ffamily%3DPrompt;fillColor=#647687;fontColor=#ffffff;strokeColor=#314354;" parent="1" vertex="1">
          <mxGeometry x="480" y="580" width="320" height="30" as="geometry" />
        </mxCell>
        <mxCell id="GXkyG_X95fv6h3vANshV-8" value="Rectifier" style="rounded=0;whiteSpace=wrap;html=1;fontFamily=Prompt;fontSource=https%3A%2F%2Ffonts.googleapis.com%2Fcss%3Ffamily%3DPrompt;fillColor=#647687;fontColor=#ffffff;strokeColor=#314354;" parent="1" vertex="1">
          <mxGeometry x="480" y="621" width="320" height="30" as="geometry" />
        </mxCell>
        <mxCell id="GXkyG_X95fv6h3vANshV-9" value="Rectifier" style="rounded=0;whiteSpace=wrap;html=1;fontFamily=Prompt;fontSource=https%3A%2F%2Ffonts.googleapis.com%2Fcss%3Ffamily%3DPrompt;fillColor=#647687;fontColor=#ffffff;strokeColor=#314354;" parent="1" vertex="1">
          <mxGeometry x="480" y="661" width="320" height="30" as="geometry" />
        </mxCell>
        <mxCell id="GXkyG_X95fv6h3vANshV-10" value="GNSS Poser" style="rounded=0;whiteSpace=wrap;html=1;fontFamily=Prompt;fontSource=https%3A%2F%2Ffonts.googleapis.com%2Fcss%3Ffamily%3DPrompt;fillColor=#f0a30a;fontColor=#000000;strokeColor=#BD7000;" parent="1" vertex="1">
          <mxGeometry x="480" y="725" width="320" height="30" as="geometry" />
        </mxCell>
        <mxCell id="GXkyG_X95fv6h3vANshV-80" style="edgeStyle=orthogonalEdgeStyle;rounded=0;orthogonalLoop=1;jettySize=auto;html=1;entryX=0;entryY=0.066;entryDx=0;entryDy=0;entryPerimeter=0;" parent="1" source="9Titu-ikn3R7RAfJcsM7-21" target="9Titu-ikn3R7RAfJcsM7-26" edge="1">
          <mxGeometry relative="1" as="geometry" />
        </mxCell>
        <mxCell id="GXkyG_X95fv6h3vANshV-81" style="edgeStyle=orthogonalEdgeStyle;rounded=0;orthogonalLoop=1;jettySize=auto;html=1;entryX=0.001;entryY=0.24;entryDx=0;entryDy=0;entryPerimeter=0;" parent="1" source="9Titu-ikn3R7RAfJcsM7-22" target="9Titu-ikn3R7RAfJcsM7-26" edge="1">
          <mxGeometry relative="1" as="geometry" />
        </mxCell>
        <mxCell id="GXkyG_X95fv6h3vANshV-82" style="edgeStyle=orthogonalEdgeStyle;rounded=0;orthogonalLoop=1;jettySize=auto;html=1;entryX=0.003;entryY=0.413;entryDx=0;entryDy=0;entryPerimeter=0;" parent="1" source="9Titu-ikn3R7RAfJcsM7-23" target="9Titu-ikn3R7RAfJcsM7-26" edge="1">
          <mxGeometry relative="1" as="geometry" />
        </mxCell>
        <mxCell id="GXkyG_X95fv6h3vANshV-83" style="edgeStyle=orthogonalEdgeStyle;rounded=0;orthogonalLoop=1;jettySize=auto;html=1;entryX=0;entryY=0.587;entryDx=0;entryDy=0;entryPerimeter=0;" parent="1" source="9Titu-ikn3R7RAfJcsM7-24" target="9Titu-ikn3R7RAfJcsM7-26" edge="1">
          <mxGeometry relative="1" as="geometry" />
        </mxCell>
        <mxCell id="GXkyG_X95fv6h3vANshV-84" style="edgeStyle=orthogonalEdgeStyle;rounded=0;orthogonalLoop=1;jettySize=auto;html=1;entryX=-0.006;entryY=0.761;entryDx=0;entryDy=0;entryPerimeter=0;" parent="1" source="9Titu-ikn3R7RAfJcsM7-25" target="9Titu-ikn3R7RAfJcsM7-26" edge="1">
          <mxGeometry relative="1" as="geometry" />
        </mxCell>
        <mxCell id="GXkyG_X95fv6h3vANshV-85" style="edgeStyle=orthogonalEdgeStyle;rounded=0;orthogonalLoop=1;jettySize=auto;html=1;entryX=-0.006;entryY=0.936;entryDx=0;entryDy=0;entryPerimeter=0;" parent="1" source="GXkyG_X95fv6h3vANshV-73" target="9Titu-ikn3R7RAfJcsM7-26" edge="1">
          <mxGeometry relative="1" as="geometry" />
        </mxCell>
        <mxCell id="FJypRKDRmy7NfV-EIju6-3" value="" style="rounded=0;whiteSpace=wrap;html=1;fillColor=#EEE9DA;" parent="1" vertex="1">
          <mxGeometry x="470" y="103" width="170" height="257" as="geometry" />
        </mxCell>
        <mxCell id="9Titu-ikn3R7RAfJcsM7-21" value="Preprocess" style="rounded=0;whiteSpace=wrap;html=1;fontFamily=Prompt;fontSource=https%3A%2F%2Ffonts.googleapis.com%2Fcss%3Ffamily%3DPrompt;fillColor=#cce5ff;strokeColor=#36393d;" parent="1" vertex="1">
          <mxGeometry x="480" y="118" width="150" height="30" as="geometry" />
        </mxCell>
        <mxCell id="9Titu-ikn3R7RAfJcsM7-22" value="Preprocess" style="rounded=0;whiteSpace=wrap;html=1;fontFamily=Prompt;fontSource=https%3A%2F%2Ffonts.googleapis.com%2Fcss%3Ffamily%3DPrompt;fillColor=#cce5ff;strokeColor=#36393d;" parent="1" vertex="1">
          <mxGeometry x="480" y="158" width="150" height="30" as="geometry" />
        </mxCell>
        <mxCell id="9Titu-ikn3R7RAfJcsM7-23" value="Preprocess" style="rounded=0;whiteSpace=wrap;html=1;fontFamily=Prompt;fontSource=https%3A%2F%2Ffonts.googleapis.com%2Fcss%3Ffamily%3DPrompt;fillColor=#cce5ff;strokeColor=#36393d;" parent="1" vertex="1">
          <mxGeometry x="480" y="198" width="150" height="30" as="geometry" />
        </mxCell>
        <mxCell id="9Titu-ikn3R7RAfJcsM7-24" value="Preprocess" style="rounded=0;whiteSpace=wrap;html=1;fontFamily=Prompt;fontSource=https%3A%2F%2Ffonts.googleapis.com%2Fcss%3Ffamily%3DPrompt;fillColor=#cce5ff;strokeColor=#36393d;" parent="1" vertex="1">
          <mxGeometry x="480" y="238" width="150" height="30" as="geometry" />
        </mxCell>
        <mxCell id="9Titu-ikn3R7RAfJcsM7-25" value="Preprocess" style="rounded=0;whiteSpace=wrap;html=1;fontFamily=Prompt;fontSource=https%3A%2F%2Ffonts.googleapis.com%2Fcss%3Ffamily%3DPrompt;fillColor=#cce5ff;strokeColor=#36393d;" parent="1" vertex="1">
          <mxGeometry x="480" y="278" width="150" height="30" as="geometry" />
        </mxCell>
        <mxCell id="GXkyG_X95fv6h3vANshV-73" value="Preprocess" style="rounded=0;whiteSpace=wrap;html=1;fontFamily=Prompt;fontSource=https%3A%2F%2Ffonts.googleapis.com%2Fcss%3Ffamily%3DPrompt;fillColor=#cce5ff;strokeColor=#36393d;" parent="1" vertex="1">
          <mxGeometry x="480" y="318" width="150" height="30" as="geometry" />
        </mxCell>
        <mxCell id="GXkyG_X95fv6h3vANshV-12" value="Localization" style="rounded=0;whiteSpace=wrap;html=1;verticalAlign=top;fontFamily=Prompt;fontSource=https%3A%2F%2Ffonts.googleapis.com%2Fcss%3Ffamily%3DPrompt;fillColor=#F4F2DE;" parent="1" vertex="1">
          <mxGeometry x="870" y="80" width="330" height="200" as="geometry" />
        </mxCell>
        <mxCell id="FJypRKDRmy7NfV-EIju6-10" style="edgeStyle=orthogonalEdgeStyle;rounded=0;orthogonalLoop=1;jettySize=auto;html=1;entryX=0;entryY=0.5;entryDx=0;entryDy=0;" parent="1" source="GXkyG_X95fv6h3vANshV-13" target="GXkyG_X95fv6h3vANshV-15" edge="1">
          <mxGeometry relative="1" as="geometry" />
        </mxCell>
        <mxCell id="GXkyG_X95fv6h3vANshV-13" value="Pose Estimator" style="rounded=0;whiteSpace=wrap;html=1;fontFamily=Prompt;fontSource=https%3A%2F%2Ffonts.googleapis.com%2Fcss%3Ffamily%3DPrompt;fillColor=#bac8d3;strokeColor=#23445d;" parent="1" vertex="1">
          <mxGeometry x="880" y="130" width="130" height="35" as="geometry" />
        </mxCell>
        <mxCell id="FJypRKDRmy7NfV-EIju6-11" style="edgeStyle=orthogonalEdgeStyle;rounded=0;orthogonalLoop=1;jettySize=auto;html=1;entryX=0;entryY=0.5;entryDx=0;entryDy=0;" parent="1" source="GXkyG_X95fv6h3vANshV-14" target="GXkyG_X95fv6h3vANshV-15" edge="1">
          <mxGeometry relative="1" as="geometry" />
        </mxCell>
        <mxCell id="GXkyG_X95fv6h3vANshV-14" value="Twist Estimator" style="rounded=0;whiteSpace=wrap;html=1;fontFamily=Prompt;fontSource=https%3A%2F%2Ffonts.googleapis.com%2Fcss%3Ffamily%3DPrompt;fillColor=#bac8d3;strokeColor=#10739e;" parent="1" vertex="1">
          <mxGeometry x="880" y="210" width="130" height="35" as="geometry" />
        </mxCell>
        <mxCell id="GXkyG_X95fv6h3vANshV-15" value="Fusion Filter" style="rounded=0;whiteSpace=wrap;html=1;fontFamily=Prompt;fontSource=https%3A%2F%2Ffonts.googleapis.com%2Fcss%3Ffamily%3DPrompt;fillColor=#bac8d3;strokeColor=#36393d;" parent="1" vertex="1">
          <mxGeometry x="1060" y="170" width="130" height="35" as="geometry" />
        </mxCell>
        <mxCell id="GXkyG_X95fv6h3vANshV-16" value="Perception" style="rounded=0;whiteSpace=wrap;html=1;verticalAlign=top;fontFamily=Prompt;fontSource=https%3A%2F%2Ffonts.googleapis.com%2Fcss%3Ffamily%3DPrompt;fillColor=#F4F2DE;" parent="1" vertex="1">
          <mxGeometry x="870" y="360" width="330" height="205" as="geometry" />
        </mxCell>
        <mxCell id="GXkyG_X95fv6h3vANshV-17" value="Object Segmentation" style="rounded=0;whiteSpace=wrap;html=1;fontFamily=Prompt;fontSource=https%3A%2F%2Ffonts.googleapis.com%2Fcss%3Ffamily%3DPrompt;fillColor=#CBDEFA;strokeColor=#b46504;" parent="1" vertex="1">
          <mxGeometry x="900" y="410" width="280" height="30" as="geometry" />
        </mxCell>
        <mxCell id="GXkyG_X95fv6h3vANshV-18" value="Object Recognition" style="rounded=0;whiteSpace=wrap;html=1;fontFamily=Prompt;fontSource=https%3A%2F%2Ffonts.googleapis.com%2Fcss%3Ffamily%3DPrompt;fillColor=#cbdefa;" parent="1" vertex="1">
          <mxGeometry x="900" y="465" width="280" height="30" as="geometry" />
        </mxCell>
        <mxCell id="GXkyG_X95fv6h3vANshV-19" value="Traffic Light Recognition" style="rounded=0;whiteSpace=wrap;html=1;fontFamily=Prompt;fontSource=https%3A%2F%2Ffonts.googleapis.com%2Fcss%3Ffamily%3DPrompt;fillColor=#cbdefa;" parent="1" vertex="1">
          <mxGeometry x="900" y="525" width="280" height="30" as="geometry" />
        </mxCell>
        <mxCell id="GXkyG_X95fv6h3vANshV-20" value="Map" style="rounded=0;whiteSpace=wrap;html=1;verticalAlign=top;fontFamily=Prompt;fontSource=https%3A%2F%2Ffonts.googleapis.com%2Fcss%3Ffamily%3DPrompt;fillColor=#F4F2DE;" parent="1" vertex="1">
          <mxGeometry x="870" y="620" width="330" height="170" as="geometry" />
        </mxCell>
        <mxCell id="GXkyG_X95fv6h3vANshV-21" value="PCD Map" style="rounded=0;whiteSpace=wrap;html=1;fontFamily=Prompt;fontSource=https%3A%2F%2Ffonts.googleapis.com%2Fcss%3Ffamily%3DPrompt;fillColor=#6d8764;fontColor=#ffffff;strokeColor=#3A5431;" parent="1" vertex="1">
          <mxGeometry x="890" y="670" width="130" height="100" as="geometry" />
        </mxCell>
        <mxCell id="GXkyG_X95fv6h3vANshV-22" value="Vector Map" style="rounded=0;whiteSpace=wrap;html=1;fontFamily=Prompt;fontSource=https%3A%2F%2Ffonts.googleapis.com%2Fcss%3Ffamily%3DPrompt;fillColor=#6d8764;fontColor=#ffffff;strokeColor=#3A5431;" parent="1" vertex="1">
          <mxGeometry x="1050" y="670" width="130" height="100" as="geometry" />
        </mxCell>
        <mxCell id="GXkyG_X95fv6h3vANshV-31" value="Planning" style="rounded=0;whiteSpace=wrap;html=1;verticalAlign=top;fontFamily=Prompt;fontSource=https%3A%2F%2Ffonts.googleapis.com%2Fcss%3Ffamily%3DPrompt;fillColor=#F4F2DE;" parent="1" vertex="1">
          <mxGeometry x="1250" y="80" width="350" height="710" as="geometry" />
        </mxCell>
        <mxCell id="GXkyG_X95fv6h3vANshV-32" value="&lt;font color=&quot;#fffafb&quot;&gt;Motion Planning&lt;/font&gt;" style="rounded=0;whiteSpace=wrap;html=1;fontFamily=Prompt;fontSource=https%3A%2F%2Ffonts.googleapis.com%2Fcss%3Ffamily%3DPrompt;fillColor=#008170;" parent="1" vertex="1">
          <mxGeometry x="1280" y="140" width="290" height="60" as="geometry" />
        </mxCell>
        <mxCell id="GXkyG_X95fv6h3vANshV-33" value="Behavior Planning" style="rounded=0;whiteSpace=wrap;html=1;verticalAlign=top;fontFamily=Prompt;fontSource=https%3A%2F%2Ffonts.googleapis.com%2Fcss%3Ffamily%3DPrompt;fillColor=#C1D8C3;" parent="1" vertex="1">
          <mxGeometry x="1280" y="240" width="290" height="410" as="geometry" />
        </mxCell>
        <mxCell id="GXkyG_X95fv6h3vANshV-35" value="&lt;font color=&quot;#f6f5ff&quot;&gt;Motion Planning&lt;/font&gt;" style="rounded=0;whiteSpace=wrap;html=1;fontFamily=Prompt;fontSource=https%3A%2F%2Ffonts.googleapis.com%2Fcss%3Ffamily%3DPrompt;fillColor=#008170;" parent="1" vertex="1">
          <mxGeometry x="1280" y="700" width="290" height="70" as="geometry" />
        </mxCell>
        <mxCell id="GXkyG_X95fv6h3vANshV-36" value="Path Planning" style="rounded=0;whiteSpace=wrap;html=1;verticalAlign=top;fontFamily=Prompt;fontSource=https%3A%2F%2Ffonts.googleapis.com%2Fcss%3Ffamily%3DPrompt;fillColor=#6A9C89;" parent="1" vertex="1">
          <mxGeometry x="1310" y="290" width="230" height="150" as="geometry" />
        </mxCell>
        <mxCell id="GXkyG_X95fv6h3vANshV-37" value="Velocity Planning" style="rounded=0;whiteSpace=wrap;html=1;verticalAlign=top;fontFamily=Prompt;fontSource=https%3A%2F%2Ffonts.googleapis.com%2Fcss%3Ffamily%3DPrompt;fillColor=#6A9C89;" parent="1" vertex="1">
          <mxGeometry x="1310" y="470" width="230" height="150" as="geometry" />
        </mxCell>
        <mxCell id="GXkyG_X95fv6h3vANshV-55" value="&lt;font color=&quot;#fcfffe&quot;&gt;Mod&lt;/font&gt;" style="rounded=0;whiteSpace=wrap;html=1;fillColor=#a2c579;" parent="1" vertex="1">
          <mxGeometry x="1320" y="320" width="70" height="110" as="geometry" />
        </mxCell>
        <mxCell id="GXkyG_X95fv6h3vANshV-56" value="&lt;font color=&quot;#ffffff&quot;&gt;Mod&lt;/font&gt;" style="rounded=0;whiteSpace=wrap;html=1;fillColor=#A2C579;" parent="1" vertex="1">
          <mxGeometry x="1460" y="320" width="70" height="110" as="geometry" />
        </mxCell>
        <mxCell id="GXkyG_X95fv6h3vANshV-57" value="&lt;font color=&quot;#ede8ff&quot;&gt;Mod&lt;/font&gt;" style="rounded=0;whiteSpace=wrap;html=1;fillColor=#a2c579;" parent="1" vertex="1">
          <mxGeometry x="1320" y="500" width="70" height="110" as="geometry" />
        </mxCell>
        <mxCell id="GXkyG_X95fv6h3vANshV-58" value="&lt;font color=&quot;#f7f7ff&quot;&gt;Mod&lt;/font&gt;" style="rounded=0;whiteSpace=wrap;html=1;fillColor=#a2c579;" parent="1" vertex="1">
          <mxGeometry x="1460" y="500" width="70" height="110" as="geometry" />
        </mxCell>
        <mxCell id="GXkyG_X95fv6h3vANshV-59" value="..." style="text;html=1;strokeColor=none;fillColor=none;align=center;verticalAlign=middle;whiteSpace=wrap;rounded=0;" parent="1" vertex="1">
          <mxGeometry x="1395" y="540" width="60" height="30" as="geometry" />
        </mxCell>
        <mxCell id="GXkyG_X95fv6h3vANshV-61" value="..." style="text;html=1;strokeColor=none;fillColor=none;align=center;verticalAlign=middle;whiteSpace=wrap;rounded=0;" parent="1" vertex="1">
          <mxGeometry x="1395" y="360" width="60" height="30" as="geometry" />
        </mxCell>
        <mxCell id="GXkyG_X95fv6h3vANshV-23" value="System" style="rounded=0;whiteSpace=wrap;html=1;verticalAlign=top;fontFamily=Prompt;fontSource=https%3A%2F%2Ffonts.googleapis.com%2Fcss%3Ffamily%3DPrompt;fillColor=#F4F2DE;" parent="1" vertex="1">
          <mxGeometry x="460" y="820" width="1620" height="120" as="geometry" />
        </mxCell>
        <mxCell id="GXkyG_X95fv6h3vANshV-25" value="Service Log Checker" style="rounded=0;whiteSpace=wrap;html=1;fontFamily=Prompt;fontSource=https%3A%2F%2Ffonts.googleapis.com%2Fcss%3Ffamily%3DPrompt;fillColor=#9fb1fc;" parent="1" vertex="1">
          <mxGeometry x="752" y="850" width="220" height="60" as="geometry" />
        </mxCell>
        <mxCell id="GXkyG_X95fv6h3vANshV-26" value="Component State Monitor" style="rounded=0;whiteSpace=wrap;html=1;fontFamily=Prompt;fontSource=https%3A%2F%2Ffonts.googleapis.com%2Fcss%3Ffamily%3DPrompt;fillColor=#9fb1fc;" parent="1" vertex="1">
          <mxGeometry x="1024" y="850" width="220" height="60" as="geometry" />
        </mxCell>
        <mxCell id="GXkyG_X95fv6h3vANshV-27" value="Error Monitor" style="rounded=0;whiteSpace=wrap;html=1;fontFamily=Prompt;fontSource=https%3A%2F%2Ffonts.googleapis.com%2Fcss%3Ffamily%3DPrompt;fillColor=#9fb1fc;" parent="1" vertex="1">
          <mxGeometry x="1296" y="850" width="220" height="60" as="geometry" />
        </mxCell>
        <mxCell id="GXkyG_X95fv6h3vANshV-28" value="Emergency Handler" style="rounded=0;whiteSpace=wrap;html=1;fontFamily=Prompt;fontSource=https%3A%2F%2Ffonts.googleapis.com%2Fcss%3Ffamily%3DPrompt;fillColor=#9fb1fc;" parent="1" vertex="1">
          <mxGeometry x="1568" y="850" width="220" height="60" as="geometry" />
        </mxCell>
        <mxCell id="GXkyG_X95fv6h3vANshV-29" value="MRM Operator" style="rounded=0;whiteSpace=wrap;html=1;fontFamily=Prompt;fontSource=https%3A%2F%2Ffonts.googleapis.com%2Fcss%3Ffamily%3DPrompt;fillColor=#9fb1fc;" parent="1" vertex="1">
          <mxGeometry x="1840" y="850" width="220" height="60" as="geometry" />
        </mxCell>
        <mxCell id="GXkyG_X95fv6h3vANshV-30" value="System Monitor" style="rounded=0;whiteSpace=wrap;html=1;fontFamily=Prompt;fontSource=https%3A%2F%2Ffonts.googleapis.com%2Fcss%3Ffamily%3DPrompt;fillColor=#9FB1FC;strokeColor=#6c8ebf;" parent="1" vertex="1">
          <mxGeometry x="480" y="850" width="220" height="60" as="geometry" />
        </mxCell>
      </root>
    </mxGraphModel>
  </diagram>
</mxfile>
